<svg width="1200" height="420" viewBox="0 0 1200 420" fill="none" xmlns="http://www.w3.org/2000/svg">
  <defs>
    <linearGradient id="bg" x1="70" y1="44" x2="1120" y2="380" gradientUnits="userSpaceOnUse">
      <stop stop-color="#FBF8F2"/>
      <stop offset="0.52" stop-color="#F4EEE4"/>
      <stop offset="1" stop-color="#F9F9F7"/>
    </linearGradient>
    <linearGradient id="paper" x1="0" y1="0" x2="1" y2="1">
      <stop stop-color="#FFFDF9"/>
      <stop offset="1" stop-color="#F1EBDD"/>
    </linearGradient>
    <filter id="panelShadow" x="-30" y="-30" width="320" height="340" filterUnits="userSpaceOnUse">
      <feDropShadow dx="0" dy="18" stdDeviation="18" flood-color="#111111" flood-opacity="0.10"/>
    </filter>
    <filter id="slideShadow" x="-30" y="-30" width="340" height="250" filterUnits="userSpaceOnUse">
      <feDropShadow dx="0" dy="20" stdDeviation="18" flood-color="#111111" flood-opacity="0.09"/>
    </filter>
  </defs>

  <rect width="1200" height="420" rx="28" fill="url(#bg)"/>
  <rect x="1" y="1" width="1198" height="418" rx="27" stroke="#111111" stroke-opacity="0.08" stroke-width="2"/>

  <g opacity="0.09">
    <path d="M0 102H1200" stroke="#111111" stroke-width="2" stroke-dasharray="2 14"/>
    <path d="M0 226H1200" stroke="#111111" stroke-width="2" stroke-dasharray="2 14"/>
    <path d="M0 328H1200" stroke="#111111" stroke-width="2" stroke-dasharray="2 14"/>
  </g>

  <circle cx="1038" cy="78" r="92" fill="#EADBC3" fill-opacity="0.42"/>
  <circle cx="182" cy="88" r="82" fill="#EFE6D6" fill-opacity="0.78"/>
  <circle cx="956" cy="320" r="96" fill="#E7E5E4" fill-opacity="0.72"/>

  <g transform="translate(72 72)">
    <text x="0" y="0" fill="#111111" font-family="Georgia, 'Times New Roman', serif" font-size="58" font-weight="700">PDF2PPT</text>
    <text x="0" y="42" fill="#525252" font-family="'Trebuchet MS', 'Segoe UI', sans-serif" font-size="23" font-weight="500">
      Scanned document to editable slide workflow
    </text>
    <text x="0" y="96" fill="#111111" font-family="'Trebuchet MS', 'Segoe UI', sans-serif" font-size="18" font-weight="700">
      OCR · Layout reconstruction · Web/API/Worker · Deployment ready
    </text>

    <g transform="translate(0 126)">
      <rect x="0" y="0" width="172" height="40" rx="20" fill="#111111"/>
      <text x="86" y="25" text-anchor="middle" fill="#F9F9F7" font-family="'Trebuchet MS', 'Segoe UI', sans-serif" font-size="16" font-weight="700">
        High fidelity
      </text>

      <rect x="188" y="0" width="184" height="40" rx="20" fill="#ECE7DD" stroke="#111111" stroke-opacity="0.10"/>
      <text x="280" y="25" text-anchor="middle" fill="#111111" font-family="'Trebuchet MS', 'Segoe UI', sans-serif" font-size="16" font-weight="700">
        Editable output
      </text>
    </g>
  </g>

  <g transform="translate(688 54)">
    <g filter="url(#panelShadow)">
      <g transform="translate(0 54) rotate(-6 114 132)">
        <rect x="0" y="0" width="174" height="230" rx="18" fill="#111111" fill-opacity="0.05"/>
        <path d="M34 18H110L138 46V198C138 211.255 127.255 222 114 222H34C20.7452 222 10 211.255 10 198V42C10 28.7452 20.7452 18 34 18Z" fill="url(#paper)"/>
        <path d="M110 18V42C110 48.6274 115.373 54 122 54H138" fill="#E8DED1"/>
        <rect x="30" y="72" width="56" height="10" rx="5" fill="#111111"/>
        <rect x="30" y="92" width="92" height="10" rx="5" fill="#57534E"/>
        <rect x="30" y="112" width="80" height="10" rx="5" fill="#78716C"/>
        <rect x="26" y="66" width="78" height="24" rx="8" stroke="#CC0000" stroke-width="2.5" stroke-dasharray="6 4"/>
        <rect x="78" y="144" width="46" height="36" rx="8" fill="#E7E5E4"/>
        <rect x="30" y="144" width="38" height="36" rx="8" fill="#F5F1E8"/>
      </g>
    </g>

    <path d="M236 174C278 174 312 152 336 112" stroke="#111111" stroke-width="7" stroke-linecap="round"/>
    <path d="M322 110L340 108L334 125" stroke="#111111" stroke-width="7" stroke-linecap="round" stroke-linejoin="round"/>

    <g filter="url(#slideShadow)" transform="translate(350 42)">
      <rect x="16" y="22" width="214" height="150" rx="22" fill="#111111" fill-opacity="0.07"/>
      <rect x="0" y="0" width="230" height="164" rx="24" fill="#FFFDF9"/>
      <rect x="0" y="0" width="230" height="22" rx="24" fill="#111111"/>
      <circle cx="18" cy="11" r="4" fill="#F5F5F4"/>
      <circle cx="32" cy="11" r="4" fill="#D6D3D1"/>
      <circle cx="46" cy="11" r="4" fill="#E7E5E4"/>
      <rect x="28" y="42" width="80" height="10" rx="5" fill="#111111"/>
      <rect x="28" y="62" width="136" height="10" rx="5" fill="#57534E"/>
      <rect x="28" y="84" width="62" height="56" rx="12" fill="#F5F5F4"/>
      <rect x="100" y="84" width="96" height="12" rx="6" fill="#D6D3D1"/>
      <rect x="100" y="104" width="82" height="12" rx="6" fill="#D6D3D1"/>
      <rect x="100" y="124" width="68" height="12" rx="6" fill="#D6D3D1"/>
      <rect x="28" y="84" width="62" height="56" rx="12" stroke="#111111" stroke-width="2"/>
    </g>
  </g>
</svg>
